<svg width="54" height="47" viewBox="0 0 54 47" fill="none" xmlns="http://www.w3.org/2000/svg">
<rect x="6" y="6" width="43" height="28" fill="black"/>
<circle cx="27.5" cy="18.5" r="4.5" fill="#F8CD46"/>
<circle cx="40.5" cy="18.5" r="4.5" fill="#5BC67A"/>
<circle cx="13.5976" cy="18.5" r="4.5" fill="#E34258"/>
<path d="M1 8.92423V42.7046C1 43.4958 1.29915 44.2731 1.93976 44.83C3.14494 45.9747 5.02008 45.9672 6.21644 44.8074L13.9868 37.2749H44.8571C49.3085 37.2749 53 33.7404 53 29.3507V8.92423C53 4.53454 49.3085 1 44.8571 1H9.14286C4.69153 1 1 4.53454 1 8.92423ZM7.08163 8.92423C7.08163 7.87345 7.98194 6.9567 9.14286 6.9567H44.8571C46.0181 6.9567 46.9184 7.87345 46.9184 8.92423V29.4002C46.9184 30.4509 46.0181 31.3677 44.8571 31.3677H12.6633C11.877 31.3677 11.0911 31.6451 10.5174 32.2638L7.08163 35.5944V8.92423Z" fill="black" stroke="black" stroke-width="2"/>
</svg>
